<?xml version="1.0" encoding="utf-8"?>
<!-- Generator: Adobe Illustrator 27.7.0, SVG Export Plug-In . SVG Version: 6.00 Build 0)  -->
<svg version="1.1" id="Capa_1" xmlns="http://www.w3.org/2000/svg" xmlns:xlink="http://www.w3.org/1999/xlink" x="0px" y="0px"
	 viewBox="0 0 486.9 435.2" style="enable-background:new 0 0 486.9 435.2;" xml:space="preserve">
<style type="text/css">
	.st0{stroke:#000000;stroke-miterlimit:10;}
	.st1{fill:#656464;}
</style>
<g>
	<g>
		<path d="M242.2,411.9c-21.4,0.1-42.4-2.6-62.4-10.9c-32.2-13.3-52.6-37.5-62.7-71.3c-6.1-20.5-7.4-41.4-6.8-62.6
			c0-1.5,0.7-3.5-0.5-4.2c-1.7-1.1-2.7,1.1-3.9,2c-20.1,14.3-41.7,19-65.3,10.4c-9.3-3.4-9.7-4.1-9.7-14.1
			c0-22.8,9.4-41.3,25.7-56.5c4.1-3.8,8.4-7.5,13.1-10.3c3-1.8,3.2-3.2,1.3-6.2c-7.3-11.3-9.1-23.6-5.5-36.7
			c5-18.3,21.4-31.4,40.6-32.3c3.3-0.1,4.6-1,5.4-4.5c6.4-31.3,36.9-49.7,66.9-40.5c3.1,1,3.9,0.1,4.8-2.8
			c7.8-27.2,30.4-45.9,56.4-47.8c34-2.5,57.3,16.4,67.2,40.7c0.9,2.3,1.9,4.7,2.3,7.2c0.5,3.3,1.8,3.7,4.8,2.8
			c17.6-5.5,33.7-2.2,48.1,9.2c10.1,8,16.4,18.8,18.9,31.6c0.6,3.1,1.7,4,4.8,4.2c17.6,0.9,30.9,9.4,38.4,25.7
			c7.6,16.4,5.7,32.5-5.4,46.9c-2.5,3.3-2.7,4.7,1,7.3c18.7,12.9,32,29.7,35.9,53.1c1.1,6.5,0.7,13,0.5,19.6
			c-0.1,2.8-1.9,3.4-3.7,4.2c-13.9,6.3-28.2,7.6-43.1,4.7c-10.7-2.1-20.4-6.8-29.5-12.8c-1.1-0.8-2.1-2.6-3.7-1.6
			c-1.2,0.8-0.5,2.5-0.5,3.8c0.4,18.7-0.9,37.2-5.7,55.3c-10.8,40.9-35.8,67.8-75.7,79.9C277,410.3,259.7,412,242.2,411.9z
			 M128.1,122.3c0.1,15.5-3.4,18.3-14.8,15.5c-11.4-2.8-24,3.4-29,14.5c-5.3,11.7-2,25.9,7.9,33.2c9.4,6.9,19.4,7.3,29.5,1.6
			c7.3-4.1,12.8-1.3,14.2,7.1c0.1,0.4,0.1,0.9,0.2,1.3c2.1,12.8,10.7,21.8,23.2,23.9c8.9,1.5,17.1-1,23-7.8
			c5.7-6.5,14.4-5.7,17.2,2.8c0.9,2.7,3,5.1,4.7,7.4c20.8,28.4,71,27.6,89.2-8.1c4.1-8.1,9.6-8.9,15.9-2.7c8.1,8,17.6,11,28.4,7.3
			c11.1-3.8,17.1-12.2,18.8-24c1.2-8.6,7.1-11.4,14.4-7c6.2,3.7,12.9,4.6,19.8,2.8c14.1-3.6,22.8-18.8,18.9-32.8
			c-4.2-15-18.5-23.2-33.1-18.8c-1.8,0.6-3.6,1-5.6,0.6c-4.9-1-7.2-4.4-6.9-10.7c0.6-12.8-3.7-23.4-13.5-31.3
			c-12.5-10-28.4-10.2-41.8-0.8c-3.4,2.4-6.7,3.6-10.5,1.4c-3.6-2-4.7-5.4-4.7-9.4c0-2.7-0.1-5.4-0.6-8c-4.4-25.1-25.9-43.6-57.6-38
			c-21.8,3.9-36.4,22.6-37.1,46c-0.1,2.2,0.2,4.4-1.3,6.4c-3.4,4.7-8.2,5.2-13.7,1.4c-11.8-8.1-24.2-9.2-36.7-2.4
			C134.4,100.5,128.3,111.5,128.1,122.3z M127.6,281.3c0.5,13.7,1.9,27.3,5.6,40.5c8.9,32.5,28.5,54.8,60.2,64.9
			c30.3,9.6,61.1,9.9,91.8,2.2c36-9,58.7-32.2,68.1-69c7.3-28.8,5.7-57.8,1.4-86.8c-0.4-3-1.7-2.5-3.9-1.4
			c-14.5,7.6-29,7.9-43.4-0.3c-2.9-1.6-4.2-0.8-6.1,1.5c-18.4,22.6-42.4,29.8-70.1,25.1c-16.9-2.9-30.5-11.9-41.2-25.6
			c-1.4-1.9-2.5-2.7-4.9-1.3c-17,9.6-33.4,8.4-49.1-3.2c-2.8-2.1-3.7-1.1-4.1,1.8C129.3,246.9,127.4,264,127.6,281.3z M423.7,264.4
			c1.2,0,2.3,0.1,3.5,0c1.3-0.1,3,0.3,3.5-1.1c0.5-1.4-1-2.3-1.9-3.2c-17-17.7-36.3-32.4-56.6-45.8c-0.8-0.5-1.6-1.6-2.7-1
			c-1.2,0.7-0.4,1.9-0.2,2.8c1.1,6.3,2.2,12.6,3.3,18.8c0.2,1.2,0.3,2.4,1.1,3.3C387.1,253.5,403,264,423.7,264.4z M64.1,261.9
			c5.6-0.2,11-1.2,16.2-3.1c13.1-4.8,23.1-13.9,32.1-24.4c1.2-1.4,1.7-3.1,2-4.8c0.8-4.8,1.8-9.6,2.6-14.4c0.2-1.1,1.1-2.5,0-3.3
			c-1.2-0.9-2.1,0.4-3,1.1c-18.8,12.5-36.6,26.3-52.4,42.6c-1.5,1.6-4.6,3-3.5,5.4C59,262.8,62.1,261.6,64.1,261.9z M50.2,249.5
			c1.6,0.1,2.1-0.8,2.7-1.4c6.3-6.8,13.3-12.9,20.2-18.9c7.7-6.6,15.8-12.6,23.9-18.7c0.7-0.6,2.5-0.8,1.5-2.5
			c-0.8-1.4-11.1-3.7-12.6-2.8c-12.6,7.3-23.6,16.3-30.7,29.5C52.7,239.3,50.6,244,50.2,249.5z M386,209.3
			c18.2,12.8,35,26.2,50.3,41.6c1.2-1.6,0.5-2.6,0.2-3.5c-5.2-15.8-16.4-26.4-29.2-35.9C400.5,206.6,394.2,206.4,386,209.3z"/>
		<path d="M185.1,314.3c-7.4-0.3-14.6-4.6-18.6-13.5c-1.6-3.6-3.5-4.7-6.9-4.2c-0.3,0-0.6,0-0.9,0c-5.1-0.1-7.8-2-7.8-5.7
			c0-3.7,2.7-6,7.7-5.7c4.2,0.3,6.4-1.1,8.2-5.1c4.8-10.4,17-15.3,27.7-11.7c10.3,3.5,17.2,15.1,15.4,26
			C208,306.1,198.7,314.3,185.1,314.3z M187.5,284c0-4.3-2.9-7.3-7-7.3c-4.2,0-7.2,2.9-7.3,7.1c-0.1,4,3.1,7.4,7,7.5
			C184.2,291.3,187.5,288.1,187.5,284z M194.6,294.5c-3.2,0.1-5.2,1.7-5.3,5.1c0,3.3,1.8,5.3,5.1,5.4c3,0,4.9-1.8,5.1-4.9
			C199.7,296.7,198.1,294.7,194.6,294.5z"/>
		<path d="M304.1,314.3c-14.3,0.1-23.7-8.2-25.7-20.2c-1.8-10.7,5.4-22.3,15.9-25.7c10.8-3.5,22.6,1.5,27.5,12.1
			c1.6,3.5,3.4,4.9,7.2,4.7c4.6-0.3,7.4,2.1,7.4,5.6c0.1,3.8-2.5,6-7.7,5.7c-3.6-0.1-5.3,1.1-6.9,4.5
			C317.9,309.6,310.8,313.9,304.1,314.3z M295,291.2c3.8,0.3,7.2-2.5,7.6-6.4c0.5-4.3-2.2-7.8-6.2-8.2c-4-0.5-7.7,2.7-8,7
			C288.1,287.3,291.2,290.9,295,291.2z M314.7,299.5c-0.3-3.1-1.9-5.1-5-5.1c-3.2,0-5.3,1.8-5.3,5.1c0,3.3,1.9,5.3,5.2,5.3
			C312.9,304.9,314.4,302.8,314.7,299.5z"/>
		<path d="M237.5,363.9c0.5-3.2-0.3-5.7-4.7-7.3c-4-1.5-7.3-4.9-7.4-10.1c-0.1-4.8,2.6-7.8,6.3-10c7.5-4.4,15.4-4.4,22.9-0.1
			c8.9,5.2,8.5,15-0.9,19.8c-3.9,2-5.2,4.1-5,8.3c0.3,6.7-1.7,9.6-5.7,9.4C238.9,373.9,237.4,371.3,237.5,363.9z"/>
	</g>
</g>
</svg>
