<?xml version="1.0" encoding="utf-8"?>
<!-- Generator: Adobe Illustrator 27.7.0, SVG Export Plug-In . SVG Version: 6.00 Build 0)  -->
<svg version="1.1" id="Capa_1" xmlns="http://www.w3.org/2000/svg" xmlns:xlink="http://www.w3.org/1999/xlink" x="0px" y="0px"
	 viewBox="0 0 486.9 435.2" style="enable-background:new 0 0 486.9 435.2;" xml:space="preserve">
<style type="text/css">
	.st0{stroke:#000000;stroke-miterlimit:10;}
</style>
<g>
	<path class="st0" d="M194.6,292.8c-3.2,0.1-5.2,1.7-5.3,5c0,3.2,1.8,5.2,5.1,5.3c3,0,4.9-1.8,5.1-4.8
		C199.7,295,198.1,293,194.6,292.8z"/>
	<path class="st0" d="M296.3,275.3c-4-0.5-7.7,2.7-8,6.9c-0.3,3.5,2.9,7.1,6.6,7.4c3.8,0.3,7.2-2.5,7.6-6.2
		C303,279.2,300.4,275.8,296.3,275.3z"/>
	<path class="st0" d="M180.6,275.4c-4.2,0-7.2,2.8-7.3,6.9c-0.1,3.9,3.1,7.2,7,7.3c3.9,0.1,7.2-3.1,7.2-7
		C187.5,278.4,184.6,275.4,180.6,275.4z"/>
	<path class="st0" d="M0.6,0.4v435.2h486.9V0.4H0.6z M455.8,270.6c-0.1,2.7-1.9,3.4-3.7,4.1c-13.9,6.1-28.2,7.5-43.1,4.6
		c-10.7-2.1-20.4-6.6-29.5-12.5c-1.1-0.7-2.1-2.6-3.7-1.6c-1.2,0.8-0.5,2.4-0.5,3.7c0.4,18.3-0.9,36.3-5.7,54
		c-10.8,40-35.8,66.3-75.7,78.2c-16.9,5-34.2,6.6-51.7,6.6c-21.4,0.1-42.4-2.6-62.4-10.6c-32.2-13-52.6-36.7-62.7-69.7
		c-6.1-20-7.4-40.5-6.8-61.3c0-1.4,0.7-3.4-0.5-4.1c-1.7-1.1-2.7,1.1-3.9,2c-20.1,14-41.7,18.6-65.3,10.1c-9.3-3.3-9.7-4-9.7-13.8
		c0-22.3,9.4-40.4,25.7-55.2c4.1-3.7,8.4-7.3,13.1-10.1c3-1.7,3.2-3.1,1.3-6c-7.3-11.1-9.1-23.1-5.5-35.9
		c5-17.9,21.4-30.7,40.6-31.6c3.3-0.1,4.6-0.9,5.4-4.4c6.4-30.6,36.9-48.6,66.9-39.6c3.1,0.9,3.9,0.1,4.8-2.8
		c7.8-26.6,30.4-44.9,56.4-46.8c34-2.4,57.3,16,67.2,39.8c0.9,2.3,1.9,4.6,2.3,7c0.5,3.2,1.8,3.6,4.8,2.7c17.6-5.3,33.7-2.1,48.1,9
		c10.1,7.9,16.4,18.3,18.9,30.9c0.6,3,1.7,3.9,4.8,4.1c17.6,0.9,30.9,9.2,38.4,25.1c7.6,16.1,5.7,31.8-5.4,45.9
		c-2.5,3.2-2.7,4.6,1,7.2c18.7,12.6,32,29.1,35.9,51.9C456.4,257.7,456,264.1,455.8,270.6z"/>
	<path class="st0" d="M309.7,292.8c-3.2,0-5.3,1.7-5.3,5c0,3.2,1.9,5.2,5.2,5.2c3.3,0,4.9-2.1,5.1-5.2
		C314.3,294.7,312.8,292.8,309.7,292.8z"/>
	<path class="st0" d="M96.9,210.7c0.7-0.5,2.5-0.8,1.5-2.5c-0.8-1.4-11.1-3.6-12.6-2.7c-12.6,7.1-23.6,15.9-30.7,28.8
		c-2.4,4.4-4.5,9-5,14.4c1.6,0.1,2.1-0.8,2.7-1.3c6.3-6.6,13.3-12.6,20.2-18.5C80.7,222.5,88.9,216.7,96.9,210.7z"/>
	<path class="st0" d="M114,213c-18.8,12.2-36.6,25.7-52.4,41.6c-1.5,1.5-4.6,2.9-3.5,5.3c0.9,1.9,4,0.7,6,1c5.6-0.2,11-1.2,16.2-3
		c13.1-4.7,23.1-13.6,32.1-23.9c1.2-1.4,1.7-3,2-4.7c0.8-4.7,1.8-9.4,2.6-14.1c0.2-1.1,1.1-2.4,0-3.3C115.9,211.1,115,212.4,114,213
		z"/>
	<path class="st0" d="M428.8,259.1c-17-17.3-36.3-31.7-56.6-44.8c-0.8-0.5-1.6-1.6-2.7-0.9c-1.2,0.7-0.4,1.9-0.2,2.8
		c1.1,6.1,2.2,12.3,3.3,18.4c0.2,1.1,0.3,2.3,1.1,3.2c13.4,14.9,29.2,25.1,50,25.6c1.2,0,2.3,0.1,3.5,0c1.3-0.1,3,0.3,3.5-1.1
		C431.2,260.9,429.7,260,428.8,259.1z"/>
	<path class="st0" d="M390.9,190.6c14.1-3.5,22.8-18.4,18.9-32.1c-4.2-14.7-18.5-22.7-33.1-18.4c-1.8,0.5-3.6,1-5.6,0.6
		c-4.9-1-7.2-4.3-6.9-10.4c0.6-12.5-3.7-22.9-13.5-30.6c-12.5-9.8-28.4-10-41.8-0.8c-3.4,2.3-6.7,3.6-10.5,1.4
		c-3.6-2-4.7-5.2-4.7-9.2c0-2.6-0.1-5.3-0.6-7.8c-4.4-24.5-25.9-42.7-57.6-37.1c-21.8,3.8-36.4,22.1-37.1,45
		c-0.1,2.1,0.2,4.3-1.3,6.3c-3.4,4.6-8.2,5.1-13.7,1.4c-11.8-7.9-24.2-9-36.7-2.4c-12.4,6.5-18.4,17.3-18.7,27.8
		c0.1,15.2-3.4,17.9-14.8,15.1c-11.4-2.8-24,3.4-29,14.2c-5.3,11.4-2,25.4,7.9,32.5c9.4,6.8,19.4,7.1,29.5,1.6
		c7.3-4,12.8-1.3,14.2,7c0.1,0.4,0.1,0.9,0.2,1.3c2.1,12.5,10.7,21.3,23.2,23.3c8.9,1.5,17.1-0.9,23-7.6c5.7-6.3,14.4-5.6,17.2,2.7
		c0.9,2.7,3,5,4.7,7.3c20.8,27.8,71,27,89.2-8c4.1-8,9.6-8.7,15.9-2.6c8.1,7.8,17.6,10.7,28.4,7.1c11.1-3.7,17.1-12,18.8-23.5
		c1.2-8.4,7.1-11.2,14.4-6.9C377.4,191.5,384,192.3,390.9,190.6z"/>
	<path class="st0" d="M407.2,211.7c-6.7-4.8-13-5.1-21.2-2.2c18.2,12.5,35,25.6,50.3,40.7c1.2-1.6,0.5-2.5,0.2-3.4
		C431.2,231.3,420.1,220.9,407.2,211.7z"/>
	<path class="st0" d="M350.8,231.5c-14.5,7.4-29,7.7-43.4-0.3c-2.9-1.6-4.2-0.8-6.1,1.5c-18.4,22.1-42.4,29.2-70.1,24.5
		c-16.9-2.8-30.5-11.7-41.2-25c-1.4-1.8-2.5-2.7-4.9-1.3c-17,9.4-33.4,8.2-49.1-3.1c-2.8-2.1-3.7-1.1-4.1,1.8
		c-2.7,16.7-4.5,33.4-4.3,50.4c0.5,13.4,1.9,26.7,5.6,39.6c8.9,31.7,28.5,53.6,60.2,63.5c30.3,9.4,61.1,9.7,91.8,2.2
		c36-8.8,58.7-31.5,68.1-67.5c7.3-28.2,5.7-56.5,1.4-84.9C354.2,229.9,352.9,230.3,350.8,231.5z M210,292.6
		c-2,11.5-11.3,19.5-24.9,19.5c-7.4-0.3-14.6-4.5-18.6-13.2c-1.6-3.5-3.5-4.6-6.9-4.2c-0.3,0-0.6,0-0.9,0c-5.1-0.1-7.8-2-7.8-5.6
		c0-3.7,2.7-5.9,7.7-5.5c4.2,0.3,6.4-1.1,8.2-5c4.8-10.2,17-15,27.7-11.4C204.9,270.7,211.8,282,210,292.6z M253.6,353.2
		c-3.9,1.9-5.2,4-5,8.2c0.3,6.6-1.7,9.4-5.7,9.2c-4-0.2-5.4-2.6-5.4-9.9c0.5-3.2-0.3-5.6-4.7-7.1c-4-1.4-7.3-4.8-7.4-9.9
		c-0.1-4.7,2.6-7.7,6.3-9.7c7.5-4.3,15.4-4.3,22.9,0C263.4,339,263,348.6,253.6,353.2z M328.7,294.7c-3.6-0.1-5.3,1.1-6.9,4.4
		c-4,8.5-11.1,12.7-17.8,13.1c-14.3,0.1-23.7-8-25.7-19.8c-1.8-10.4,5.4-21.8,15.9-25.1c10.8-3.4,22.6,1.5,27.5,11.9
		c1.6,3.4,3.4,4.8,7.2,4.6c4.6-0.3,7.4,2.1,7.4,5.4C336.4,292.8,333.9,294.9,328.7,294.7z"/>
</g>
</svg>
